<?xml version="1.0" encoding="UTF-8" standalone="no"?>
<!DOCTYPE svg PUBLIC "-//W3C//DTD SVG 1.1//EN" "http://www.w3.org/Graphics/SVG/1.1/DTD/svg11.dtd">
<svg xmlns="http://www.w3.org/2000/svg" version="1.1" viewBox="0 0 70 70">
<path fill="rgb(255,255,255)" d="M 0.00 0.00 c 23.33 0.00 46.67 0.00 70.00 0.00 0.00 23.33 0.00 46.67 0.00 70.00 -23.33 0.00 -46.67 0.00 -70.00 0.00 0.00 -23.33 0.00 -46.67 0.00 -70.00 Z M 8.88 33.15 c -0.47 0.68 -0.45 1.35 0.04 2.02 4.65 6.31 10.76 10.26 18.33 11.83 6.40 1.34 12.63 1.07 18.69 -0.81 6.65 -2.07 11.79 -5.93 15.39 -11.59 0.27 -0.41 0.26 -0.82 -0.01 -1.22 -2.15 -3.48 -4.82 -6.21 -8.01 -8.19 -8.13 -5.04 -16.96 -6.41 -26.50 -4.13 -7.80 1.76 -13.78 5.79 -17.93 12.09 Z" fill-opacity="0.000"/>
<path fill="rgb(0,0,0)" d="M 53.31 25.19 c 3.19 1.98 5.86 4.71 8.01 8.19 0.27 0.40 0.28 0.81 0.01 1.22 -3.60 5.66 -8.74 9.52 -15.39 11.59 -6.06 1.88 -12.29 2.15 -18.69 0.81 -7.57 -1.57 -13.68 -5.52 -18.33 -11.83 -0.49 -0.67 -0.51 -1.34 -0.04 -2.02 4.15 -6.30 10.13 -10.33 17.93 -12.09 9.54 -2.28 18.37 -0.91 26.50 4.13 Z M 31.17 25.13 c -0.44 -0.35 -0.85 -0.64 -1.24 -0.87 -0.29 -0.17 -0.60 -0.24 -0.93 -0.20 -5.96 0.66 -11.02 3.41 -15.19 8.25 -0.97 1.13 -0.97 2.26 0.01 3.39 3.95 4.53 8.59 7.27 13.93 8.21 1.23 0.22 1.30 0.01 0.23 -0.63 -3.51 -2.06 -5.53 -5.66 -6.06 -10.78 -0.15 -1.52 0.49 -2.53 1.92 -3.05 0.61 -0.22 1.03 0.05 1.27 0.82 0.09 0.32 0.10 0.64 0.02 0.97 -1.08 4.50 0.40 7.98 4.43 10.45 3.76 2.29 7.55 2.21 11.38 -0.25 1.88 -1.14 3.09 -2.60 3.62 -4.38 1.02 -2.91 0.82 -5.41 -0.62 -7.50 -2.92 -4.24 -6.89 -5.65 -11.89 -4.25 -0.33 0.09 -0.62 0.02 -0.88 -0.18 Z M 41.80 24.87 c 4.15 2.03 6.14 5.16 5.95 9.38 -0.18 4.12 -2.33 7.22 -6.44 9.31 -0.16 0.33 -0.10 0.48 0.19 0.44 6.61 -0.82 11.62 -3.77 15.02 -8.83 0.54 -0.76 0.52 -1.51 -0.05 -2.25 -3.87 -4.96 -8.69 -7.85 -14.47 -8.67 -1.28 -0.18 -1.35 0.02 -0.20 0.62 Z" fill-opacity="1.000"/>
<path fill="rgb(255,255,255)" d="M 29.93 24.26 c 0.39 0.23 0.80 0.52 1.24 0.87 0.26 0.20 0.55 0.27 0.88 0.18 5.00 -1.40 8.97 0.01 11.89 4.25 1.44 2.09 1.64 4.59 0.62 7.50 -0.53 1.78 -1.74 3.24 -3.62 4.38 -3.83 2.46 -7.62 2.54 -11.38 0.25 -4.03 -2.47 -5.51 -5.95 -4.43 -10.45 0.08 -0.33 0.07 -0.65 -0.02 -0.97 -0.24 -0.77 -0.66 -1.04 -1.27 -0.82 -1.43 0.52 -2.07 1.53 -1.92 3.05 0.53 5.12 2.55 8.72 6.06 10.78 1.07 0.64 1.00 0.85 -0.23 0.63 -5.34 -0.94 -9.98 -3.68 -13.93 -8.21 -0.98 -1.13 -0.98 -2.26 -0.01 -3.39 4.17 -4.84 9.23 -7.59 15.19 -8.25 0.33 -0.04 0.64 0.03 0.93 0.20 Z M 35.76 34.05 c 0.52 0.98 0.27 1.25 -0.75 0.81 -2.08 -0.90 -4.03 -1.72 -5.85 -2.46 -1.92 -0.78 -2.64 -0.16 -2.16 1.85 0.84 3.66 3.09 5.82 6.75 6.50 2.40 0.45 4.63 -0.24 6.69 -2.06 2.37 -2.00 3.04 -4.29 2.00 -6.88 -1.15 -2.87 -3.79 -4.44 -7.93 -4.72 -1.39 -0.13 -1.81 0.44 -1.27 1.73 0.65 1.53 1.49 3.27 2.52 5.23 Z" fill-opacity="0.000"/>
<path fill="rgb(255,255,255)" d="M 42.00 24.25 c 5.78 0.82 10.60 3.71 14.47 8.67 0.57 0.74 0.59 1.49 0.05 2.25 -3.40 5.06 -8.41 8.01 -15.02 8.83 -0.29 0.04 -0.35 -0.11 -0.19 -0.44 4.11 -2.09 6.26 -5.19 6.44 -9.31 0.19 -4.22 -1.80 -7.35 -5.95 -9.38 -1.15 -0.60 -1.08 -0.80 0.20 -0.62 Z" fill-opacity="0.000"/>
<path fill="rgb(0,0,0)" d="M 34.51 27.09 c 4.14 0.28 6.78 1.85 7.93 4.72 1.04 2.59 0.37 4.88 -2.00 6.88 -2.06 1.82 -4.29 2.51 -6.69 2.06 -3.66 -0.68 -5.91 -2.84 -6.75 -6.50 -0.48 -2.01 0.24 -2.63 2.16 -1.85 1.82 0.74 3.77 1.56 5.85 2.46 1.02 0.44 1.27 0.17 0.75 -0.81 -1.03 -1.96 -1.87 -3.70 -2.52 -5.23 -0.54 -1.29 -0.12 -1.86 1.27 -1.73 Z" fill-opacity="1.000"/>
</svg>